%TF.GenerationSoftware,KiCad,Pcbnew,(6.0.10)*%
%TF.CreationDate,2023-01-23T18:05:53+00:00*%
%TF.ProjectId,bedberry_splitter,62656462-6572-4727-995f-73706c697474,rev?*%
%TF.SameCoordinates,Original*%
%TF.FileFunction,Legend,Bot*%
%TF.FilePolarity,Positive*%
%FSLAX46Y46*%
G04 Gerber Fmt 4.6, Leading zero omitted, Abs format (unit mm)*
G04 Created by KiCad (PCBNEW (6.0.10)) date 2023-01-23 18:05:53*
%MOMM*%
%LPD*%
G01*
G04 APERTURE LIST*
%ADD10C,0.150000*%
G04 APERTURE END LIST*
D10*
X67047619Y-105714285D02*
X68047619Y-105714285D01*
X67333333Y-105380952D01*
X68047619Y-105047619D01*
X67047619Y-105047619D01*
X68047619Y-104666666D02*
X68047619Y-104047619D01*
X67666666Y-104380952D01*
X67666666Y-104238095D01*
X67619047Y-104142857D01*
X67571428Y-104095238D01*
X67476190Y-104047619D01*
X67238095Y-104047619D01*
X67142857Y-104095238D01*
X67095238Y-104142857D01*
X67047619Y-104238095D01*
X67047619Y-104523809D01*
X67095238Y-104619047D01*
X67142857Y-104666666D01*
X66952380Y-103857142D02*
X66952380Y-103095238D01*
X68047619Y-102857142D02*
X67238095Y-102857142D01*
X67142857Y-102809523D01*
X67095238Y-102761904D01*
X67047619Y-102666666D01*
X67047619Y-102476190D01*
X67095238Y-102380952D01*
X67142857Y-102333333D01*
X67238095Y-102285714D01*
X68047619Y-102285714D01*
X67047619Y-101809523D02*
X68047619Y-101809523D01*
X68047619Y-101428571D01*
X68000000Y-101333333D01*
X67952380Y-101285714D01*
X67857142Y-101238095D01*
X67714285Y-101238095D01*
X67619047Y-101285714D01*
X67571428Y-101333333D01*
X67523809Y-101428571D01*
X67523809Y-101809523D01*
X67047619Y-80714285D02*
X68047619Y-80714285D01*
X67333333Y-80380952D01*
X68047619Y-80047619D01*
X67047619Y-80047619D01*
X68047619Y-79666666D02*
X68047619Y-79047619D01*
X67666666Y-79380952D01*
X67666666Y-79238095D01*
X67619047Y-79142857D01*
X67571428Y-79095238D01*
X67476190Y-79047619D01*
X67238095Y-79047619D01*
X67142857Y-79095238D01*
X67095238Y-79142857D01*
X67047619Y-79238095D01*
X67047619Y-79523809D01*
X67095238Y-79619047D01*
X67142857Y-79666666D01*
X66952380Y-78857142D02*
X66952380Y-78095238D01*
X68047619Y-77857142D02*
X67238095Y-77857142D01*
X67142857Y-77809523D01*
X67095238Y-77761904D01*
X67047619Y-77666666D01*
X67047619Y-77476190D01*
X67095238Y-77380952D01*
X67142857Y-77333333D01*
X67238095Y-77285714D01*
X68047619Y-77285714D01*
X67047619Y-76809523D02*
X68047619Y-76809523D01*
X68047619Y-76428571D01*
X68000000Y-76333333D01*
X67952380Y-76285714D01*
X67857142Y-76238095D01*
X67714285Y-76238095D01*
X67619047Y-76285714D01*
X67571428Y-76333333D01*
X67523809Y-76428571D01*
X67523809Y-76809523D01*
X154952380Y-94285714D02*
X153952380Y-94285714D01*
X154666666Y-94619047D01*
X153952380Y-94952380D01*
X154952380Y-94952380D01*
X154047619Y-95380952D02*
X154000000Y-95428571D01*
X153952380Y-95523809D01*
X153952380Y-95761904D01*
X154000000Y-95857142D01*
X154047619Y-95904761D01*
X154142857Y-95952380D01*
X154238095Y-95952380D01*
X154380952Y-95904761D01*
X154952380Y-95333333D01*
X154952380Y-95952380D01*
X155047619Y-96142857D02*
X155047619Y-96904761D01*
X154952380Y-97142857D02*
X153952380Y-97142857D01*
X153952380Y-97380952D01*
X154000000Y-97523809D01*
X154095238Y-97619047D01*
X154190476Y-97666666D01*
X154380952Y-97714285D01*
X154523809Y-97714285D01*
X154714285Y-97666666D01*
X154809523Y-97619047D01*
X154904761Y-97523809D01*
X154952380Y-97380952D01*
X154952380Y-97142857D01*
X154952380Y-98142857D02*
X153952380Y-98142857D01*
X154952380Y-98714285D01*
X153952380Y-98714285D01*
X165000000Y-86738095D02*
X164952380Y-86642857D01*
X164952380Y-86500000D01*
X165000000Y-86357142D01*
X165095238Y-86261904D01*
X165190476Y-86214285D01*
X165380952Y-86166666D01*
X165523809Y-86166666D01*
X165714285Y-86214285D01*
X165809523Y-86261904D01*
X165904761Y-86357142D01*
X165952380Y-86500000D01*
X165952380Y-86595238D01*
X165904761Y-86738095D01*
X165857142Y-86785714D01*
X165523809Y-86785714D01*
X165523809Y-86595238D01*
X165952380Y-87214285D02*
X164952380Y-87214285D01*
X165952380Y-87785714D01*
X164952380Y-87785714D01*
X165952380Y-88261904D02*
X164952380Y-88261904D01*
X164952380Y-88500000D01*
X165000000Y-88642857D01*
X165095238Y-88738095D01*
X165190476Y-88785714D01*
X165380952Y-88833333D01*
X165523809Y-88833333D01*
X165714285Y-88785714D01*
X165809523Y-88738095D01*
X165904761Y-88642857D01*
X165952380Y-88500000D01*
X165952380Y-88261904D01*
X152452380Y-88785714D02*
X151452380Y-88785714D01*
X152166666Y-89119047D01*
X151452380Y-89452380D01*
X152452380Y-89452380D01*
X151452380Y-89833333D02*
X151452380Y-90452380D01*
X151833333Y-90119047D01*
X151833333Y-90261904D01*
X151880952Y-90357142D01*
X151928571Y-90404761D01*
X152023809Y-90452380D01*
X152261904Y-90452380D01*
X152357142Y-90404761D01*
X152404761Y-90357142D01*
X152452380Y-90261904D01*
X152452380Y-89976190D01*
X152404761Y-89880952D01*
X152357142Y-89833333D01*
X152547619Y-90642857D02*
X152547619Y-91404761D01*
X152452380Y-91642857D02*
X151452380Y-91642857D01*
X151452380Y-91880952D01*
X151500000Y-92023809D01*
X151595238Y-92119047D01*
X151690476Y-92166666D01*
X151880952Y-92214285D01*
X152023809Y-92214285D01*
X152214285Y-92166666D01*
X152309523Y-92119047D01*
X152404761Y-92023809D01*
X152452380Y-91880952D01*
X152452380Y-91642857D01*
X152452380Y-92642857D02*
X151452380Y-92642857D01*
X152452380Y-93214285D01*
X151452380Y-93214285D01*
X59352619Y-77214285D02*
X60352619Y-77214285D01*
X59638333Y-76880952D01*
X60352619Y-76547619D01*
X59352619Y-76547619D01*
X59352619Y-75547619D02*
X59352619Y-76119047D01*
X59352619Y-75833333D02*
X60352619Y-75833333D01*
X60209761Y-75928571D01*
X60114523Y-76023809D01*
X60066904Y-76119047D01*
X59257380Y-75357142D02*
X59257380Y-74595238D01*
X60352619Y-74357142D02*
X59543095Y-74357142D01*
X59447857Y-74309523D01*
X59400238Y-74261904D01*
X59352619Y-74166666D01*
X59352619Y-73976190D01*
X59400238Y-73880952D01*
X59447857Y-73833333D01*
X59543095Y-73785714D01*
X60352619Y-73785714D01*
X59352619Y-73309523D02*
X60352619Y-73309523D01*
X60352619Y-72928571D01*
X60305000Y-72833333D01*
X60257380Y-72785714D01*
X60162142Y-72738095D01*
X60019285Y-72738095D01*
X59924047Y-72785714D01*
X59876428Y-72833333D01*
X59828809Y-72928571D01*
X59828809Y-73309523D01*
X59352619Y-102214285D02*
X60352619Y-102214285D01*
X59638333Y-101880952D01*
X60352619Y-101547619D01*
X59352619Y-101547619D01*
X59352619Y-100547619D02*
X59352619Y-101119047D01*
X59352619Y-100833333D02*
X60352619Y-100833333D01*
X60209761Y-100928571D01*
X60114523Y-101023809D01*
X60066904Y-101119047D01*
X59257380Y-100357142D02*
X59257380Y-99595238D01*
X60352619Y-99357142D02*
X59543095Y-99357142D01*
X59447857Y-99309523D01*
X59400238Y-99261904D01*
X59352619Y-99166666D01*
X59352619Y-98976190D01*
X59400238Y-98880952D01*
X59447857Y-98833333D01*
X59543095Y-98785714D01*
X60352619Y-98785714D01*
X59352619Y-98309523D02*
X60352619Y-98309523D01*
X60352619Y-97928571D01*
X60305000Y-97833333D01*
X60257380Y-97785714D01*
X60162142Y-97738095D01*
X60019285Y-97738095D01*
X59924047Y-97785714D01*
X59876428Y-97833333D01*
X59828809Y-97928571D01*
X59828809Y-98309523D01*
X61547619Y-90214285D02*
X62547619Y-90214285D01*
X61833333Y-89880952D01*
X62547619Y-89547619D01*
X61547619Y-89547619D01*
X62452380Y-89119047D02*
X62500000Y-89071428D01*
X62547619Y-88976190D01*
X62547619Y-88738095D01*
X62500000Y-88642857D01*
X62452380Y-88595238D01*
X62357142Y-88547619D01*
X62261904Y-88547619D01*
X62119047Y-88595238D01*
X61547619Y-89166666D01*
X61547619Y-88547619D01*
X61452380Y-88357142D02*
X61452380Y-87595238D01*
X62547619Y-87357142D02*
X61738095Y-87357142D01*
X61642857Y-87309523D01*
X61595238Y-87261904D01*
X61547619Y-87166666D01*
X61547619Y-86976190D01*
X61595238Y-86880952D01*
X61642857Y-86833333D01*
X61738095Y-86785714D01*
X62547619Y-86785714D01*
X61547619Y-86309523D02*
X62547619Y-86309523D01*
X62547619Y-85928571D01*
X62500000Y-85833333D01*
X62452380Y-85785714D01*
X62357142Y-85738095D01*
X62214285Y-85738095D01*
X62119047Y-85785714D01*
X62071428Y-85833333D01*
X62023809Y-85928571D01*
X62023809Y-86309523D01*
X59547619Y-83833333D02*
X60547619Y-83833333D01*
X60547619Y-83452380D01*
X60500000Y-83357142D01*
X60452380Y-83309523D01*
X60357142Y-83261904D01*
X60214285Y-83261904D01*
X60119047Y-83309523D01*
X60071428Y-83357142D01*
X60023809Y-83452380D01*
X60023809Y-83833333D01*
X60547619Y-82928571D02*
X59547619Y-82690476D01*
X60261904Y-82500000D01*
X59547619Y-82309523D01*
X60547619Y-82071428D01*
X59547619Y-81119047D02*
X60023809Y-81452380D01*
X59547619Y-81690476D02*
X60547619Y-81690476D01*
X60547619Y-81309523D01*
X60500000Y-81214285D01*
X60452380Y-81166666D01*
X60357142Y-81119047D01*
X60214285Y-81119047D01*
X60119047Y-81166666D01*
X60071428Y-81214285D01*
X60023809Y-81309523D01*
X60023809Y-81690476D01*
X54500000Y-100761904D02*
X54547619Y-100857142D01*
X54547619Y-101000000D01*
X54500000Y-101142857D01*
X54404761Y-101238095D01*
X54309523Y-101285714D01*
X54119047Y-101333333D01*
X53976190Y-101333333D01*
X53785714Y-101285714D01*
X53690476Y-101238095D01*
X53595238Y-101142857D01*
X53547619Y-101000000D01*
X53547619Y-100904761D01*
X53595238Y-100761904D01*
X53642857Y-100714285D01*
X53976190Y-100714285D01*
X53976190Y-100904761D01*
X53547619Y-100285714D02*
X54547619Y-100285714D01*
X53547619Y-99714285D01*
X54547619Y-99714285D01*
X53547619Y-99238095D02*
X54547619Y-99238095D01*
X54547619Y-99000000D01*
X54500000Y-98857142D01*
X54404761Y-98761904D01*
X54309523Y-98714285D01*
X54119047Y-98666666D01*
X53976190Y-98666666D01*
X53785714Y-98714285D01*
X53690476Y-98761904D01*
X53595238Y-98857142D01*
X53547619Y-99000000D01*
X53547619Y-99238095D01*
X54500000Y-75761904D02*
X54547619Y-75857142D01*
X54547619Y-76000000D01*
X54500000Y-76142857D01*
X54404761Y-76238095D01*
X54309523Y-76285714D01*
X54119047Y-76333333D01*
X53976190Y-76333333D01*
X53785714Y-76285714D01*
X53690476Y-76238095D01*
X53595238Y-76142857D01*
X53547619Y-76000000D01*
X53547619Y-75904761D01*
X53595238Y-75761904D01*
X53642857Y-75714285D01*
X53976190Y-75714285D01*
X53976190Y-75904761D01*
X53547619Y-75285714D02*
X54547619Y-75285714D01*
X53547619Y-74714285D01*
X54547619Y-74714285D01*
X53547619Y-74238095D02*
X54547619Y-74238095D01*
X54547619Y-74000000D01*
X54500000Y-73857142D01*
X54404761Y-73761904D01*
X54309523Y-73714285D01*
X54119047Y-73666666D01*
X53976190Y-73666666D01*
X53785714Y-73714285D01*
X53690476Y-73761904D01*
X53595238Y-73857142D01*
X53547619Y-74000000D01*
X53547619Y-74238095D01*
X159952380Y-78666666D02*
X158952380Y-78666666D01*
X158952380Y-79047619D01*
X159000000Y-79142857D01*
X159047619Y-79190476D01*
X159142857Y-79238095D01*
X159285714Y-79238095D01*
X159380952Y-79190476D01*
X159428571Y-79142857D01*
X159476190Y-79047619D01*
X159476190Y-78666666D01*
X158952380Y-79571428D02*
X159952380Y-79809523D01*
X159238095Y-80000000D01*
X159952380Y-80190476D01*
X158952380Y-80428571D01*
X159952380Y-81380952D02*
X159476190Y-81047619D01*
X159952380Y-80809523D02*
X158952380Y-80809523D01*
X158952380Y-81190476D01*
X159000000Y-81285714D01*
X159047619Y-81333333D01*
X159142857Y-81380952D01*
X159285714Y-81380952D01*
X159380952Y-81333333D01*
X159428571Y-81285714D01*
X159476190Y-81190476D01*
X159476190Y-80809523D01*
X160147380Y-85285714D02*
X159147380Y-85285714D01*
X159861666Y-85619047D01*
X159147380Y-85952380D01*
X160147380Y-85952380D01*
X160147380Y-86952380D02*
X160147380Y-86380952D01*
X160147380Y-86666666D02*
X159147380Y-86666666D01*
X159290238Y-86571428D01*
X159385476Y-86476190D01*
X159433095Y-86380952D01*
X160242619Y-87142857D02*
X160242619Y-87904761D01*
X159147380Y-88142857D02*
X159956904Y-88142857D01*
X160052142Y-88190476D01*
X160099761Y-88238095D01*
X160147380Y-88333333D01*
X160147380Y-88523809D01*
X160099761Y-88619047D01*
X160052142Y-88666666D01*
X159956904Y-88714285D01*
X159147380Y-88714285D01*
X160147380Y-89190476D02*
X159147380Y-89190476D01*
X159147380Y-89571428D01*
X159195000Y-89666666D01*
X159242619Y-89714285D01*
X159337857Y-89761904D01*
X159480714Y-89761904D01*
X159575952Y-89714285D01*
X159623571Y-89666666D01*
X159671190Y-89571428D01*
X159671190Y-89190476D01*
X59547619Y-108833333D02*
X60547619Y-108833333D01*
X60547619Y-108452380D01*
X60500000Y-108357142D01*
X60452380Y-108309523D01*
X60357142Y-108261904D01*
X60214285Y-108261904D01*
X60119047Y-108309523D01*
X60071428Y-108357142D01*
X60023809Y-108452380D01*
X60023809Y-108833333D01*
X60547619Y-107928571D02*
X59547619Y-107690476D01*
X60261904Y-107500000D01*
X59547619Y-107309523D01*
X60547619Y-107071428D01*
X59547619Y-106119047D02*
X60023809Y-106452380D01*
X59547619Y-106690476D02*
X60547619Y-106690476D01*
X60547619Y-106309523D01*
X60500000Y-106214285D01*
X60452380Y-106166666D01*
X60357142Y-106119047D01*
X60214285Y-106119047D01*
X60119047Y-106166666D01*
X60071428Y-106214285D01*
X60023809Y-106309523D01*
X60023809Y-106690476D01*
X154952380Y-84285714D02*
X153952380Y-84285714D01*
X154666666Y-84619047D01*
X153952380Y-84952380D01*
X154952380Y-84952380D01*
X154952380Y-85952380D02*
X154952380Y-85380952D01*
X154952380Y-85666666D02*
X153952380Y-85666666D01*
X154095238Y-85571428D01*
X154190476Y-85476190D01*
X154238095Y-85380952D01*
X155047619Y-86142857D02*
X155047619Y-86904761D01*
X154952380Y-87142857D02*
X153952380Y-87142857D01*
X153952380Y-87380952D01*
X154000000Y-87523809D01*
X154095238Y-87619047D01*
X154190476Y-87666666D01*
X154380952Y-87714285D01*
X154523809Y-87714285D01*
X154714285Y-87666666D01*
X154809523Y-87619047D01*
X154904761Y-87523809D01*
X154952380Y-87380952D01*
X154952380Y-87142857D01*
X154952380Y-88142857D02*
X153952380Y-88142857D01*
X154952380Y-88714285D01*
X153952380Y-88714285D01*
X157952380Y-97285714D02*
X156952380Y-97285714D01*
X157666666Y-97619047D01*
X156952380Y-97952380D01*
X157952380Y-97952380D01*
X157047619Y-98380952D02*
X157000000Y-98428571D01*
X156952380Y-98523809D01*
X156952380Y-98761904D01*
X157000000Y-98857142D01*
X157047619Y-98904761D01*
X157142857Y-98952380D01*
X157238095Y-98952380D01*
X157380952Y-98904761D01*
X157952380Y-98333333D01*
X157952380Y-98952380D01*
X158047619Y-99142857D02*
X158047619Y-99904761D01*
X156952380Y-100142857D02*
X157761904Y-100142857D01*
X157857142Y-100190476D01*
X157904761Y-100238095D01*
X157952380Y-100333333D01*
X157952380Y-100523809D01*
X157904761Y-100619047D01*
X157857142Y-100666666D01*
X157761904Y-100714285D01*
X156952380Y-100714285D01*
X157952380Y-101190476D02*
X156952380Y-101190476D01*
X156952380Y-101571428D01*
X157000000Y-101666666D01*
X157047619Y-101714285D01*
X157142857Y-101761904D01*
X157285714Y-101761904D01*
X157380952Y-101714285D01*
X157428571Y-101666666D01*
X157476190Y-101571428D01*
X157476190Y-101190476D01*
X67047619Y-98714285D02*
X68047619Y-98714285D01*
X67333333Y-98380952D01*
X68047619Y-98047619D01*
X67047619Y-98047619D01*
X68047619Y-97666666D02*
X68047619Y-97047619D01*
X67666666Y-97380952D01*
X67666666Y-97238095D01*
X67619047Y-97142857D01*
X67571428Y-97095238D01*
X67476190Y-97047619D01*
X67238095Y-97047619D01*
X67142857Y-97095238D01*
X67095238Y-97142857D01*
X67047619Y-97238095D01*
X67047619Y-97523809D01*
X67095238Y-97619047D01*
X67142857Y-97666666D01*
X66952380Y-96857142D02*
X66952380Y-96095238D01*
X67047619Y-95857142D02*
X68047619Y-95857142D01*
X68047619Y-95619047D01*
X68000000Y-95476190D01*
X67904761Y-95380952D01*
X67809523Y-95333333D01*
X67619047Y-95285714D01*
X67476190Y-95285714D01*
X67285714Y-95333333D01*
X67190476Y-95380952D01*
X67095238Y-95476190D01*
X67047619Y-95619047D01*
X67047619Y-95857142D01*
X67047619Y-94857142D02*
X68047619Y-94857142D01*
X67047619Y-94285714D01*
X68047619Y-94285714D01*
X152452380Y-81785714D02*
X151452380Y-81785714D01*
X152166666Y-82119047D01*
X151452380Y-82452380D01*
X152452380Y-82452380D01*
X151452380Y-82833333D02*
X151452380Y-83452380D01*
X151833333Y-83119047D01*
X151833333Y-83261904D01*
X151880952Y-83357142D01*
X151928571Y-83404761D01*
X152023809Y-83452380D01*
X152261904Y-83452380D01*
X152357142Y-83404761D01*
X152404761Y-83357142D01*
X152452380Y-83261904D01*
X152452380Y-82976190D01*
X152404761Y-82880952D01*
X152357142Y-82833333D01*
X152547619Y-83642857D02*
X152547619Y-84404761D01*
X151452380Y-84642857D02*
X152261904Y-84642857D01*
X152357142Y-84690476D01*
X152404761Y-84738095D01*
X152452380Y-84833333D01*
X152452380Y-85023809D01*
X152404761Y-85119047D01*
X152357142Y-85166666D01*
X152261904Y-85214285D01*
X151452380Y-85214285D01*
X152452380Y-85690476D02*
X151452380Y-85690476D01*
X151452380Y-86071428D01*
X151500000Y-86166666D01*
X151547619Y-86214285D01*
X151642857Y-86261904D01*
X151785714Y-86261904D01*
X151880952Y-86214285D01*
X151928571Y-86166666D01*
X151976190Y-86071428D01*
X151976190Y-85690476D01*
X59547619Y-69714285D02*
X60547619Y-69714285D01*
X59833333Y-69380952D01*
X60547619Y-69047619D01*
X59547619Y-69047619D01*
X60452380Y-68619047D02*
X60500000Y-68571428D01*
X60547619Y-68476190D01*
X60547619Y-68238095D01*
X60500000Y-68142857D01*
X60452380Y-68095238D01*
X60357142Y-68047619D01*
X60261904Y-68047619D01*
X60119047Y-68095238D01*
X59547619Y-68666666D01*
X59547619Y-68047619D01*
X59452380Y-67857142D02*
X59452380Y-67095238D01*
X60547619Y-66857142D02*
X59738095Y-66857142D01*
X59642857Y-66809523D01*
X59595238Y-66761904D01*
X59547619Y-66666666D01*
X59547619Y-66476190D01*
X59595238Y-66380952D01*
X59642857Y-66333333D01*
X59738095Y-66285714D01*
X60547619Y-66285714D01*
X59547619Y-65809523D02*
X60547619Y-65809523D01*
X60547619Y-65428571D01*
X60500000Y-65333333D01*
X60452380Y-65285714D01*
X60357142Y-65238095D01*
X60214285Y-65238095D01*
X60119047Y-65285714D01*
X60071428Y-65333333D01*
X60023809Y-65428571D01*
X60023809Y-65809523D01*
X64547619Y-103214285D02*
X65547619Y-103214285D01*
X64833333Y-102880952D01*
X65547619Y-102547619D01*
X64547619Y-102547619D01*
X64547619Y-101547619D02*
X64547619Y-102119047D01*
X64547619Y-101833333D02*
X65547619Y-101833333D01*
X65404761Y-101928571D01*
X65309523Y-102023809D01*
X65261904Y-102119047D01*
X64452380Y-101357142D02*
X64452380Y-100595238D01*
X64547619Y-100357142D02*
X65547619Y-100357142D01*
X65547619Y-100119047D01*
X65500000Y-99976190D01*
X65404761Y-99880952D01*
X65309523Y-99833333D01*
X65119047Y-99785714D01*
X64976190Y-99785714D01*
X64785714Y-99833333D01*
X64690476Y-99880952D01*
X64595238Y-99976190D01*
X64547619Y-100119047D01*
X64547619Y-100357142D01*
X64547619Y-99357142D02*
X65547619Y-99357142D01*
X64547619Y-98785714D01*
X65547619Y-98785714D01*
X64547619Y-68214285D02*
X65547619Y-68214285D01*
X64833333Y-67880952D01*
X65547619Y-67547619D01*
X64547619Y-67547619D01*
X65452380Y-67119047D02*
X65500000Y-67071428D01*
X65547619Y-66976190D01*
X65547619Y-66738095D01*
X65500000Y-66642857D01*
X65452380Y-66595238D01*
X65357142Y-66547619D01*
X65261904Y-66547619D01*
X65119047Y-66595238D01*
X64547619Y-67166666D01*
X64547619Y-66547619D01*
X64452380Y-66357142D02*
X64452380Y-65595238D01*
X64547619Y-65357142D02*
X65547619Y-65357142D01*
X65547619Y-65119047D01*
X65500000Y-64976190D01*
X65404761Y-64880952D01*
X65309523Y-64833333D01*
X65119047Y-64785714D01*
X64976190Y-64785714D01*
X64785714Y-64833333D01*
X64690476Y-64880952D01*
X64595238Y-64976190D01*
X64547619Y-65119047D01*
X64547619Y-65357142D01*
X64547619Y-64357142D02*
X65547619Y-64357142D01*
X64547619Y-63785714D01*
X65547619Y-63785714D01*
X67047619Y-73714285D02*
X68047619Y-73714285D01*
X67333333Y-73380952D01*
X68047619Y-73047619D01*
X67047619Y-73047619D01*
X68047619Y-72666666D02*
X68047619Y-72047619D01*
X67666666Y-72380952D01*
X67666666Y-72238095D01*
X67619047Y-72142857D01*
X67571428Y-72095238D01*
X67476190Y-72047619D01*
X67238095Y-72047619D01*
X67142857Y-72095238D01*
X67095238Y-72142857D01*
X67047619Y-72238095D01*
X67047619Y-72523809D01*
X67095238Y-72619047D01*
X67142857Y-72666666D01*
X66952380Y-71857142D02*
X66952380Y-71095238D01*
X67047619Y-70857142D02*
X68047619Y-70857142D01*
X68047619Y-70619047D01*
X68000000Y-70476190D01*
X67904761Y-70380952D01*
X67809523Y-70333333D01*
X67619047Y-70285714D01*
X67476190Y-70285714D01*
X67285714Y-70333333D01*
X67190476Y-70380952D01*
X67095238Y-70476190D01*
X67047619Y-70619047D01*
X67047619Y-70857142D01*
X67047619Y-69857142D02*
X68047619Y-69857142D01*
X67047619Y-69285714D01*
X68047619Y-69285714D01*
X64547619Y-78214285D02*
X65547619Y-78214285D01*
X64833333Y-77880952D01*
X65547619Y-77547619D01*
X64547619Y-77547619D01*
X64547619Y-76547619D02*
X64547619Y-77119047D01*
X64547619Y-76833333D02*
X65547619Y-76833333D01*
X65404761Y-76928571D01*
X65309523Y-77023809D01*
X65261904Y-77119047D01*
X64452380Y-76357142D02*
X64452380Y-75595238D01*
X64547619Y-75357142D02*
X65547619Y-75357142D01*
X65547619Y-75119047D01*
X65500000Y-74976190D01*
X65404761Y-74880952D01*
X65309523Y-74833333D01*
X65119047Y-74785714D01*
X64976190Y-74785714D01*
X64785714Y-74833333D01*
X64690476Y-74880952D01*
X64595238Y-74976190D01*
X64547619Y-75119047D01*
X64547619Y-75357142D01*
X64547619Y-74357142D02*
X65547619Y-74357142D01*
X64547619Y-73785714D01*
X65547619Y-73785714D01*
X64547619Y-93214285D02*
X65547619Y-93214285D01*
X64833333Y-92880952D01*
X65547619Y-92547619D01*
X64547619Y-92547619D01*
X65452380Y-92119047D02*
X65500000Y-92071428D01*
X65547619Y-91976190D01*
X65547619Y-91738095D01*
X65500000Y-91642857D01*
X65452380Y-91595238D01*
X65357142Y-91547619D01*
X65261904Y-91547619D01*
X65119047Y-91595238D01*
X64547619Y-92166666D01*
X64547619Y-91547619D01*
X64452380Y-91357142D02*
X64452380Y-90595238D01*
X64547619Y-90357142D02*
X65547619Y-90357142D01*
X65547619Y-90119047D01*
X65500000Y-89976190D01*
X65404761Y-89880952D01*
X65309523Y-89833333D01*
X65119047Y-89785714D01*
X64976190Y-89785714D01*
X64785714Y-89833333D01*
X64690476Y-89880952D01*
X64595238Y-89976190D01*
X64547619Y-90119047D01*
X64547619Y-90357142D01*
X64547619Y-89357142D02*
X65547619Y-89357142D01*
X64547619Y-88785714D01*
X65547619Y-88785714D01*
M02*
