M48
; DRILL file {KiCad (6.0.10)} date Mon Jan 23 18:06:03 2023
; FORMAT={-:-/ absolute / inch / decimal}
; #@! TF.CreationDate,2023-01-23T18:06:03+00:00
; #@! TF.GenerationSoftware,Kicad,Pcbnew,(6.0.10)
; #@! TF.FileFunction,Plated,1,2,PTH
FMAT,2
INCH
; #@! TA.AperFunction,Plated,PTH,ViaDrill
T1C0.0157
; #@! TA.AperFunction,Plated,PTH,ComponentDrill
T2C0.0295
; #@! TA.AperFunction,Plated,PTH,ComponentDrill
T3C0.0315
; #@! TA.AperFunction,Plated,PTH,ComponentDrill
T4C0.0354
; #@! TA.AperFunction,Plated,PTH,ComponentDrill
T5C0.0394
; #@! TA.AperFunction,Plated,PTH,ComponentDrill
T6C0.0398
; #@! TA.AperFunction,Plated,PTH,ComponentDrill
T7C0.0551
; #@! TA.AperFunction,Plated,PTH,ComponentDrill
T8C0.0591
; #@! TA.AperFunction,Plated,PTH,ComponentDrill
T9C0.0630
; #@! TA.AperFunction,Plated,PTH,ComponentDrill
T10C0.0669
; #@! TA.AperFunction,Plated,PTH,ComponentDrill
T11C0.0689
; #@! TA.AperFunction,Plated,PTH,ComponentDrill
T12C0.1063
%
G90
G05
T1
X2.9921Y-3.1496
X3.0709Y-3.3465
X3.1102Y-3.3071
X3.1102Y-3.8583
X3.1142Y-3.937
X3.2283Y-4.5669
X3.3059Y-2.2823
X3.3071Y-2.4409
X3.4646Y-4.8031
X3.5039Y-2.2047
X3.5445Y-4.7232
X3.5827Y-4.8031
X3.5989Y-4.4547
X3.7008Y-2.1654
X3.7402Y-2.0866
X3.7402Y-4.7638
X3.8583Y-2.0866
X4.3307Y-3.0315
X4.685Y-3.7402
X4.7205Y-3.7795
X4.8346Y-4.3189
X4.8819Y-2.8346
X5.4331Y-3.622
X5.4724Y-4.2126
X5.5118Y-3.5433
X5.5118Y-3.937
X5.5512Y-3.1102
X5.8613Y-3.0472
T2
X2.8423Y-2.6772
X2.8423Y-2.9134
X2.8423Y-3.1496
X2.8817Y-3.7795
X2.8817Y-4.0157
X2.8817Y-4.252
X3.1423Y-2.6772
X3.1423Y-2.9134
X3.1423Y-3.1496
X3.1817Y-3.7795
X3.1817Y-4.0157
X3.1817Y-4.252
X3.2677Y-3.3148
X3.2677Y-3.6148
X3.4252Y-2.6455
X3.4252Y-2.9455
X3.4252Y-3.9447
X3.4252Y-4.2447
X3.9841Y-2.2835
X3.9841Y-2.4409
X4.1415Y-4.4291
X4.1415Y-4.5866
X4.2841Y-2.2835
X4.2841Y-2.4409
X4.4415Y-4.4291
X4.4415Y-4.5866
X4.5352Y-2.2441
X4.5352Y-2.4016
X4.6533Y-4.4094
X4.6533Y-4.5669
X4.8352Y-2.2441
X4.8352Y-2.4016
X4.9533Y-4.4094
X4.9533Y-4.5669
X5.1258Y-2.2441
X5.1258Y-2.4016
X5.1652Y-4.4094
X5.1652Y-4.5669
X5.4258Y-2.2441
X5.4258Y-2.4016
X5.4652Y-4.4094
X5.4652Y-4.5669
X5.7874Y-3.3144
X5.7874Y-3.6144
X5.9449Y-2.6451
X5.9449Y-2.9451
X5.9449Y-3.9482
X5.9449Y-4.2482
T3
X2.8522Y-3.4016
X2.8786Y-3.4646
X2.9771Y-3.4646
X3.0035Y-3.5276
X3.0315Y-4.7638
X3.2315Y-4.7638
X6.1614Y-3.0118
X6.2598Y-2.6772
X6.2598Y-2.7772
X6.2614Y-3.0118
X6.3386Y-3.9764
X6.3386Y-4.1732
X6.3386Y-4.3701
X6.5386Y-3.9764
X6.5386Y-4.1732
X6.5386Y-4.3701
T4
X6.3976Y-2.8335
X6.3976Y-2.9335
X6.3976Y-3.0335
T5
X3.9961Y-3.1299
X4.0354Y-3.7795
X4.1929Y-3.1299
X4.2323Y-3.7795
T6
X2.2835Y-2.4803
X2.4587Y-4.3858
X2.4843Y-2.5276
X2.6594Y-4.4331
X6.0945Y-2.8563
X6.1417Y-2.6555
T7
X2.0669Y-2.7559
X2.0669Y-3.1496
X2.0669Y-3.7402
X2.0669Y-4.1339
X2.4606Y-2.6575
X2.4606Y-2.9528
X2.4606Y-3.248
X2.4606Y-3.6417
X2.4606Y-3.937
X2.4606Y-4.2323
X2.5591Y-2.7559
X2.5591Y-3.1496
X2.5591Y-3.7402
X2.5591Y-4.1339
X2.6575Y-2.6575
X2.6575Y-3.248
X2.6575Y-3.6417
X2.6575Y-4.2323
X5.9904Y-3.1496
X5.9904Y-3.7402
X6.0888Y-3.248
X6.0888Y-3.6417
X6.1872Y-3.1496
X6.1872Y-3.4449
X6.1872Y-3.7402
X6.5809Y-3.248
X6.5809Y-3.6417
T8
X3.4252Y-3.3105
X3.4252Y-3.6058
X3.5773Y-3.9523
X3.5773Y-4.2475
X3.5851Y-2.6452
X3.5851Y-2.9405
X4.0157Y-3.3105
X4.0157Y-3.6058
X4.1678Y-3.9523
X4.1678Y-4.2475
X4.1757Y-2.6452
X4.1757Y-2.9405
X4.2126Y-3.3105
X4.2126Y-3.6058
X4.3647Y-3.9523
X4.3647Y-4.2475
X4.3725Y-2.6452
X4.3725Y-2.9405
X4.4094Y-3.3105
X4.4094Y-3.6058
X4.5615Y-3.9523
X4.5615Y-4.2475
X4.5694Y-2.6452
X4.5694Y-2.9405
X4.6117Y-3.3233
X4.6117Y-3.6186
X4.7653Y-2.6501
X4.7653Y-2.9454
X4.7653Y-3.9375
X4.7653Y-4.2328
X4.8086Y-3.3233
X4.8086Y-3.6186
X4.9621Y-2.6501
X4.9621Y-2.9454
X4.9621Y-3.9375
X4.9621Y-4.2328
X5.0054Y-3.3233
X5.0054Y-3.6186
X5.159Y-2.6501
X5.159Y-2.9454
X5.159Y-3.9375
X5.159Y-4.2328
X5.596Y-3.3233
X5.596Y-3.6186
X5.7495Y-2.6501
X5.7495Y-2.9454
X5.7495Y-3.9375
X5.7495Y-4.2328
T9
X5.6693Y-2.126
X6.1811Y-2.5
T10
X6.4961Y-2.4803
X6.4961Y-2.6772
T11
X2.0685Y-2.8543
X2.0685Y-3.0512
X2.0685Y-3.8386
X2.0685Y-4.0354
X6.5793Y-3.3465
X6.5793Y-3.5433
T12
X2.9724Y-2.3701
X2.9724Y-4.5197
X5.689Y-2.3701
X5.689Y-4.5197
T0
M30
