%TF.GenerationSoftware,KiCad,Pcbnew,(6.0.10)*%
%TF.CreationDate,2023-01-23T18:05:53+00:00*%
%TF.ProjectId,bedberry_splitter,62656462-6572-4727-995f-73706c697474,rev?*%
%TF.SameCoordinates,Original*%
%TF.FileFunction,Soldermask,Top*%
%TF.FilePolarity,Negative*%
%FSLAX46Y46*%
G04 Gerber Fmt 4.6, Leading zero omitted, Abs format (unit mm)*
G04 Created by KiCad (PCBNEW (6.0.10)) date 2023-01-23 18:05:53*
%MOMM*%
%LPD*%
G01*
G04 APERTURE LIST*
G04 Aperture macros list*
%AMRoundRect*
0 Rectangle with rounded corners*
0 $1 Rounding radius*
0 $2 $3 $4 $5 $6 $7 $8 $9 X,Y pos of 4 corners*
0 Add a 4 corners polygon primitive as box body*
4,1,4,$2,$3,$4,$5,$6,$7,$8,$9,$2,$3,0*
0 Add four circle primitives for the rounded corners*
1,1,$1+$1,$2,$3*
1,1,$1+$1,$4,$5*
1,1,$1+$1,$6,$7*
1,1,$1+$1,$8,$9*
0 Add four rect primitives between the rounded corners*
20,1,$1+$1,$2,$3,$4,$5,0*
20,1,$1+$1,$4,$5,$6,$7,0*
20,1,$1+$1,$6,$7,$8,$9,0*
20,1,$1+$1,$8,$9,$2,$3,0*%
G04 Aperture macros list end*
%ADD10R,1.500000X1.500000*%
%ADD11O,1.500000X1.500000*%
%ADD12C,2.800000*%
%ADD13C,2.010000*%
%ADD14R,2.500000X2.500000*%
%ADD15O,2.500000X2.500000*%
%ADD16RoundRect,0.250001X1.099999X-1.099999X1.099999X1.099999X-1.099999X1.099999X-1.099999X-1.099999X0*%
%ADD17C,2.700000*%
%ADD18C,1.600000*%
%ADD19O,1.600000X1.600000*%
%ADD20C,2.600000*%
%ADD21C,5.400000*%
%ADD22C,2.000000*%
%ADD23R,1.800000X1.800000*%
%ADD24C,1.800000*%
%ADD25R,1.600000X1.600000*%
G04 APERTURE END LIST*
D10*
%TO.C,D13*%
X138815000Y-112000000D03*
D11*
X131195000Y-112000000D03*
%TD*%
D12*
%TO.C,TP2*%
X157000000Y-63500000D03*
%TD*%
D13*
%TO.C,F3*%
X156000000Y-67450000D03*
X154800000Y-72550000D03*
%TD*%
D12*
%TO.C,TP1*%
X144000000Y-54000000D03*
%TD*%
D14*
%TO.C,RL6*%
X87000000Y-91587500D03*
D15*
X102000000Y-91587500D03*
X107000000Y-91587500D03*
X112000000Y-91587500D03*
X112000000Y-84087500D03*
X107000000Y-84087500D03*
X102000000Y-84087500D03*
X87000000Y-84087500D03*
%TD*%
D16*
%TO.C,J3*%
X165000000Y-68000000D03*
D17*
X165000000Y-63000000D03*
%TD*%
D18*
%TO.C,R1*%
X159000000Y-68000000D03*
D19*
X159000000Y-70540000D03*
%TD*%
D10*
%TO.C,D18*%
X80815000Y-102000000D03*
D11*
X73195000Y-102000000D03*
%TD*%
D10*
%TO.C,D20*%
X112815000Y-112500000D03*
D11*
X105195000Y-112500000D03*
%TD*%
D10*
%TO.C,D2*%
X137815000Y-57000000D03*
D11*
X130195000Y-57000000D03*
%TD*%
D18*
%TO.C,SPARE3*%
X161000000Y-111000000D03*
D19*
X166080000Y-111000000D03*
%TD*%
D20*
%TO.C,J4*%
X157155000Y-80000000D03*
X157155000Y-87500000D03*
X157155000Y-95000000D03*
X154655000Y-82500000D03*
X154655000Y-92500000D03*
X152155000Y-80000000D03*
X152155000Y-95000000D03*
X167155000Y-92500000D03*
X167115000Y-90000000D03*
X167115000Y-85000000D03*
X167155000Y-82500000D03*
%TD*%
D14*
%TO.C,RL1*%
X146037500Y-67312500D03*
D15*
X131037500Y-67312500D03*
X126037500Y-67312500D03*
X121037500Y-67312500D03*
X121037500Y-74812500D03*
X126037500Y-74812500D03*
X131037500Y-74812500D03*
X146037500Y-74812500D03*
%TD*%
D10*
%TO.C,D5*%
X108815000Y-58000000D03*
D11*
X101195000Y-58000000D03*
%TD*%
D14*
%TO.C,RL3*%
X146037500Y-100012500D03*
D15*
X131037500Y-100012500D03*
X126037500Y-100012500D03*
X121037500Y-100012500D03*
X121037500Y-107512500D03*
X126037500Y-107512500D03*
X131037500Y-107512500D03*
X146037500Y-107512500D03*
%TD*%
D14*
%TO.C,RL2*%
X91062500Y-74687500D03*
D15*
X106062500Y-74687500D03*
X111062500Y-74687500D03*
X116062500Y-74687500D03*
X116062500Y-67187500D03*
X111062500Y-67187500D03*
X106062500Y-67187500D03*
X91062500Y-67187500D03*
%TD*%
D10*
%TO.C,D10*%
X79815000Y-68000000D03*
D11*
X72195000Y-68000000D03*
%TD*%
D10*
%TO.C,D16*%
X125815000Y-112000000D03*
D11*
X118195000Y-112000000D03*
%TD*%
D21*
%TO.C,H3*%
X75500000Y-114800000D03*
%TD*%
D10*
%TO.C,D22*%
X87000000Y-107815000D03*
D11*
X87000000Y-100195000D03*
%TD*%
D10*
%TO.C,D9*%
X122815000Y-61000000D03*
D11*
X115195000Y-61000000D03*
%TD*%
D22*
%TO.C,C2*%
X106500000Y-79500000D03*
X101500000Y-79500000D03*
%TD*%
D10*
%TO.C,D19*%
X112815000Y-116500000D03*
D11*
X105195000Y-116500000D03*
%TD*%
D18*
%TO.C,SPARE2*%
X161000000Y-106000000D03*
D19*
X166080000Y-106000000D03*
%TD*%
D18*
%TO.C,SPARE4*%
X77000000Y-121000000D03*
D19*
X82080000Y-121000000D03*
%TD*%
D10*
%TO.C,D17*%
X125815000Y-116000000D03*
D11*
X118195000Y-116000000D03*
%TD*%
D21*
%TO.C,H2*%
X144500000Y-60200000D03*
%TD*%
D10*
%TO.C,D15*%
X80815000Y-108000000D03*
D11*
X73195000Y-108000000D03*
%TD*%
D10*
%TO.C,D24*%
X83000000Y-91815000D03*
D11*
X83000000Y-84195000D03*
%TD*%
D10*
%TO.C,D8*%
X122815000Y-57000000D03*
D11*
X115195000Y-57000000D03*
%TD*%
D13*
%TO.C,F2*%
X67550000Y-112600000D03*
X62450000Y-111400000D03*
%TD*%
D20*
%TO.C,J1*%
X62500000Y-82500000D03*
X62500000Y-75000000D03*
X62500000Y-67500000D03*
X65000000Y-80000000D03*
X65000000Y-70000000D03*
X67500000Y-82500000D03*
X67500000Y-67500000D03*
X52540000Y-77500000D03*
X52500000Y-70000000D03*
X52540000Y-72500000D03*
X52500000Y-80000000D03*
%TD*%
D10*
%TO.C,D14*%
X138815000Y-116000000D03*
D11*
X131195000Y-116000000D03*
%TD*%
D10*
%TO.C,D7*%
X79815000Y-74000000D03*
D11*
X72195000Y-74000000D03*
%TD*%
D10*
%TO.C,D23*%
X147000000Y-84185000D03*
D11*
X147000000Y-91805000D03*
%TD*%
D10*
%TO.C,D12*%
X151000000Y-100285000D03*
D11*
X151000000Y-107905000D03*
%TD*%
D18*
%TO.C,SPARE1*%
X161000000Y-101000000D03*
D19*
X166080000Y-101000000D03*
%TD*%
D21*
%TO.C,H4*%
X144500000Y-114800000D03*
%TD*%
D10*
%TO.C,D21*%
X80815000Y-96000000D03*
D11*
X73195000Y-96000000D03*
%TD*%
D10*
%TO.C,D4*%
X79815000Y-80000000D03*
D11*
X72195000Y-80000000D03*
%TD*%
D14*
%TO.C,RL5*%
X142137500Y-84412500D03*
D15*
X127137500Y-84412500D03*
X122137500Y-84412500D03*
X117137500Y-84412500D03*
X117137500Y-91912500D03*
X122137500Y-91912500D03*
X127137500Y-91912500D03*
X142137500Y-91912500D03*
%TD*%
D13*
%TO.C,F1*%
X63100000Y-64200000D03*
X58000000Y-63000000D03*
%TD*%
D22*
%TO.C,C3*%
X107500000Y-96000000D03*
X102500000Y-96000000D03*
%TD*%
D10*
%TO.C,D11*%
X87000000Y-74815000D03*
D11*
X87000000Y-67195000D03*
%TD*%
D10*
%TO.C,D6*%
X108815000Y-62000000D03*
D11*
X101195000Y-62000000D03*
%TD*%
D14*
%TO.C,RL4*%
X90862500Y-107887500D03*
D15*
X105862500Y-107887500D03*
X110862500Y-107887500D03*
X115862500Y-107887500D03*
X115862500Y-100387500D03*
X110862500Y-100387500D03*
X105862500Y-100387500D03*
X90862500Y-100387500D03*
%TD*%
D20*
%TO.C,J2*%
X62500000Y-107500000D03*
X62500000Y-100000000D03*
X62500000Y-92500000D03*
X65000000Y-105000000D03*
X65000000Y-95000000D03*
X67500000Y-107500000D03*
X67500000Y-92500000D03*
X52500000Y-105000000D03*
X52540000Y-97500000D03*
X52500000Y-95000000D03*
X52540000Y-102500000D03*
%TD*%
D10*
%TO.C,D1*%
X151000000Y-67185000D03*
D11*
X151000000Y-74805000D03*
%TD*%
D23*
%TO.C,D25*%
X162500000Y-77050000D03*
D24*
X162500000Y-74510000D03*
X162500000Y-71970000D03*
%TD*%
D21*
%TO.C,H1*%
X75500000Y-60200000D03*
%TD*%
D10*
%TO.C,D3*%
X137815000Y-61000000D03*
D11*
X130195000Y-61000000D03*
%TD*%
D25*
%TO.C,C1*%
X76288614Y-89600000D03*
X75617677Y-88000000D03*
D18*
X72446740Y-86400000D03*
X73117677Y-88000000D03*
%TD*%
%TO.C,R2*%
X156500000Y-76500000D03*
D19*
X159040000Y-76500000D03*
%TD*%
M02*
